<?xml version="1.0" encoding="utf-8" standalone="no"?>
<!DOCTYPE svg PUBLIC "-//W3C//DTD SVG 1.1//EN"
  "http://www.w3.org/Graphics/SVG/1.1/DTD/svg11.dtd">
<!-- Created with matplotlib (http://matplotlib.org/) -->
<svg height="532pt" version="1.1" viewBox="0 0 774 532" width="774pt" xmlns="http://www.w3.org/2000/svg" xmlns:xlink="http://www.w3.org/1999/xlink">
 <defs>
  <style type="text/css">
*{stroke-linecap:butt;stroke-linejoin:round;stroke-miterlimit:100000;}
  </style>
 </defs>
 <g id="figure_1">
  <g id="patch_1">
   <path d="M 0 532.8 
L 774.9 532.8 
L 774.9 0 
L 0 0 
z
" style="fill:#ffffff;"/>
  </g>
  <g id="axes_1">
   <g id="patch_2">
    <path d="M 46.055092 225.269455 
L 734.747467 225.269455 
L 734.747467 26.155636 
L 46.055092 26.155636 
z
" style="fill:#ffffff;"/>
   </g>
   <g id="matplotlib.axis_1">
    <g id="xtick_1">
     <g id="line2d_1">
      <defs>
       <path d="M 0 0 
L 0 0 
" id="maee9e74b30" style="stroke:#262626;"/>
      </defs>
      <g>
       <use style="fill:#262626;stroke:#262626;" x="46.0550917969" xlink:href="#maee9e74b30" y="225.269454545"/>
      </g>
     </g>
    </g>
    <g id="xtick_2">
     <g id="line2d_2">
      <g>
       <use style="fill:#262626;stroke:#262626;" x="160.837154297" xlink:href="#maee9e74b30" y="225.269454545"/>
      </g>
     </g>
    </g>
    <g id="xtick_3">
     <g id="line2d_3">
      <g>
       <use style="fill:#262626;stroke:#262626;" x="275.619216797" xlink:href="#maee9e74b30" y="225.269454545"/>
      </g>
     </g>
    </g>
    <g id="xtick_4">
     <g id="line2d_4">
      <g>
       <use style="fill:#262626;stroke:#262626;" x="390.401279297" xlink:href="#maee9e74b30" y="225.269454545"/>
      </g>
     </g>
    </g>
    <g id="xtick_5">
     <g id="line2d_5">
      <g>
       <use style="fill:#262626;stroke:#262626;" x="505.183341797" xlink:href="#maee9e74b30" y="225.269454545"/>
      </g>
     </g>
    </g>
    <g id="xtick_6">
     <g id="line2d_6">
      <g>
       <use style="fill:#262626;stroke:#262626;" x="619.965404297" xlink:href="#maee9e74b30" y="225.269454545"/>
      </g>
     </g>
    </g>
    <g id="xtick_7">
     <g id="line2d_7">
      <g>
       <use style="fill:#262626;stroke:#262626;" x="734.747466797" xlink:href="#maee9e74b30" y="225.269454545"/>
      </g>
     </g>
    </g>
   </g>
   <g id="matplotlib.axis_2"/>
   <g id="patch_3">
    <path clip-path="url(#p68ba1393bb)" d="M 417.039293 225.269455 
L 421.603142 225.269455 
L 421.603142 224.991245 
L 417.039293 224.991245 
z
" style="fill:#b47cc7;opacity:0.4;stroke:#1a1a1a;stroke-linejoin:miter;stroke-width:0.3;"/>
   </g>
   <g id="patch_4">
    <path clip-path="url(#p68ba1393bb)" d="M 421.603142 225.269455 
L 426.16699 225.269455 
L 426.16699 224.991245 
L 421.603142 224.991245 
z
" style="fill:#b47cc7;opacity:0.4;stroke:#1a1a1a;stroke-linejoin:miter;stroke-width:0.3;"/>
   </g>
   <g id="patch_5">
    <path clip-path="url(#p68ba1393bb)" d="M 426.16699 225.269455 
L 430.730838 225.269455 
L 430.730838 224.991245 
L 426.16699 224.991245 
z
" style="fill:#b47cc7;opacity:0.4;stroke:#1a1a1a;stroke-linejoin:miter;stroke-width:0.3;"/>
   </g>
   <g id="patch_6">
    <path clip-path="url(#p68ba1393bb)" d="M 430.730838 225.269455 
L 435.294687 225.269455 
L 435.294687 223.321989 
L 430.730838 223.321989 
z
" style="fill:#b47cc7;opacity:0.4;stroke:#1a1a1a;stroke-linejoin:miter;stroke-width:0.3;"/>
   </g>
   <g id="patch_7">
    <path clip-path="url(#p68ba1393bb)" d="M 435.294687 225.269455 
L 439.858535 225.269455 
L 439.858535 222.487361 
L 435.294687 222.487361 
z
" style="fill:#b47cc7;opacity:0.4;stroke:#1a1a1a;stroke-linejoin:miter;stroke-width:0.3;"/>
   </g>
   <g id="patch_8">
    <path clip-path="url(#p68ba1393bb)" d="M 439.858535 225.269455 
L 444.422383 225.269455 
L 444.422383 215.532127 
L 439.858535 215.532127 
z
" style="fill:#b47cc7;opacity:0.4;stroke:#1a1a1a;stroke-linejoin:miter;stroke-width:0.3;"/>
   </g>
   <g id="patch_9">
    <path clip-path="url(#p68ba1393bb)" d="M 444.422383 225.269455 
L 448.986232 225.269455 
L 448.986232 209.133313 
L 444.422383 209.133313 
z
" style="fill:#b47cc7;opacity:0.4;stroke:#1a1a1a;stroke-linejoin:miter;stroke-width:0.3;"/>
   </g>
   <g id="patch_10">
    <path clip-path="url(#p68ba1393bb)" d="M 448.986232 225.269455 
L 453.55008 225.269455 
L 453.55008 207.185847 
L 448.986232 207.185847 
z
" style="fill:#b47cc7;opacity:0.4;stroke:#1a1a1a;stroke-linejoin:miter;stroke-width:0.3;"/>
   </g>
   <g id="patch_11">
    <path clip-path="url(#p68ba1393bb)" d="M 453.55008 225.269455 
L 458.113928 225.269455 
L 458.113928 197.170311 
L 453.55008 197.170311 
z
" style="fill:#b47cc7;opacity:0.4;stroke:#1a1a1a;stroke-linejoin:miter;stroke-width:0.3;"/>
   </g>
   <g id="patch_12">
    <path clip-path="url(#p68ba1393bb)" d="M 458.113928 225.269455 
L 462.677777 225.269455 
L 462.677777 182.147006 
L 458.113928 182.147006 
z
" style="fill:#b47cc7;opacity:0.4;stroke:#1a1a1a;stroke-linejoin:miter;stroke-width:0.3;"/>
   </g>
   <g id="patch_13">
    <path clip-path="url(#p68ba1393bb)" d="M 462.677777 225.269455 
L 467.241625 225.269455 
L 467.241625 164.341608 
L 462.677777 164.341608 
z
" style="fill:#b47cc7;opacity:0.4;stroke:#1a1a1a;stroke-linejoin:miter;stroke-width:0.3;"/>
   </g>
   <g id="patch_14">
    <path clip-path="url(#p68ba1393bb)" d="M 467.241625 225.269455 
L 471.805474 225.269455 
L 471.805474 143.754117 
L 467.241625 143.754117 
z
" style="fill:#b47cc7;opacity:0.4;stroke:#1a1a1a;stroke-linejoin:miter;stroke-width:0.3;"/>
   </g>
   <g id="patch_15">
    <path clip-path="url(#p68ba1393bb)" d="M 471.805474 225.269455 
L 476.369322 225.269455 
L 476.369322 129.56544 
L 471.805474 129.56544 
z
" style="fill:#b47cc7;opacity:0.4;stroke:#1a1a1a;stroke-linejoin:miter;stroke-width:0.3;"/>
   </g>
   <g id="patch_16">
    <path clip-path="url(#p68ba1393bb)" d="M 476.369322 225.269455 
L 480.93317 225.269455 
L 480.93317 106.474064 
L 476.369322 106.474064 
z
" style="fill:#b47cc7;opacity:0.4;stroke:#1a1a1a;stroke-linejoin:miter;stroke-width:0.3;"/>
   </g>
   <g id="patch_17">
    <path clip-path="url(#p68ba1393bb)" d="M 480.93317 225.269455 
L 485.497019 225.269455 
L 485.497019 73.367152 
L 480.93317 73.367152 
z
" style="fill:#b47cc7;opacity:0.4;stroke:#1a1a1a;stroke-linejoin:miter;stroke-width:0.3;"/>
   </g>
   <g id="patch_18">
    <path clip-path="url(#p68ba1393bb)" d="M 485.497019 225.269455 
L 490.060867 225.269455 
L 490.060867 75.036409 
L 485.497019 75.036409 
z
" style="fill:#b47cc7;opacity:0.4;stroke:#1a1a1a;stroke-linejoin:miter;stroke-width:0.3;"/>
   </g>
   <g id="patch_19">
    <path clip-path="url(#p68ba1393bb)" d="M 490.060867 225.269455 
L 494.624715 225.269455 
L 494.624715 60.013104 
L 490.060867 60.013104 
z
" style="fill:#b47cc7;opacity:0.4;stroke:#1a1a1a;stroke-linejoin:miter;stroke-width:0.3;"/>
   </g>
   <g id="patch_20">
    <path clip-path="url(#p68ba1393bb)" d="M 494.624715 225.269455 
L 499.188564 225.269455 
L 499.188564 37.756356 
L 494.624715 37.756356 
z
" style="fill:#b47cc7;opacity:0.4;stroke:#1a1a1a;stroke-linejoin:miter;stroke-width:0.3;"/>
   </g>
   <g id="patch_21">
    <path clip-path="url(#p68ba1393bb)" d="M 499.188564 225.269455 
L 503.752412 225.269455 
L 503.752412 36.0871 
L 499.188564 36.0871 
z
" style="fill:#b47cc7;opacity:0.4;stroke:#1a1a1a;stroke-linejoin:miter;stroke-width:0.3;"/>
   </g>
   <g id="patch_22">
    <path clip-path="url(#p68ba1393bb)" d="M 503.752412 225.269455 
L 508.316261 225.269455 
L 508.316261 32.748588 
L 503.752412 32.748588 
z
" style="fill:#b47cc7;opacity:0.4;stroke:#1a1a1a;stroke-linejoin:miter;stroke-width:0.3;"/>
   </g>
   <g id="patch_23">
    <path clip-path="url(#p68ba1393bb)" d="M 508.316261 225.269455 
L 512.880109 225.269455 
L 512.880109 51.945033 
L 508.316261 51.945033 
z
" style="fill:#b47cc7;opacity:0.4;stroke:#1a1a1a;stroke-linejoin:miter;stroke-width:0.3;"/>
   </g>
   <g id="patch_24">
    <path clip-path="url(#p68ba1393bb)" d="M 512.880109 225.269455 
L 517.443957 225.269455 
L 517.443957 58.343848 
L 512.880109 58.343848 
z
" style="fill:#b47cc7;opacity:0.4;stroke:#1a1a1a;stroke-linejoin:miter;stroke-width:0.3;"/>
   </g>
   <g id="patch_25">
    <path clip-path="url(#p68ba1393bb)" d="M 517.443957 225.269455 
L 522.007806 225.269455 
L 522.007806 74.47999 
L 517.443957 74.47999 
z
" style="fill:#b47cc7;opacity:0.4;stroke:#1a1a1a;stroke-linejoin:miter;stroke-width:0.3;"/>
   </g>
   <g id="patch_26">
    <path clip-path="url(#p68ba1393bb)" d="M 522.007806 225.269455 
L 526.571654 225.269455 
L 526.571654 88.668666 
L 522.007806 88.668666 
z
" style="fill:#b47cc7;opacity:0.4;stroke:#1a1a1a;stroke-linejoin:miter;stroke-width:0.3;"/>
   </g>
   <g id="patch_27">
    <path clip-path="url(#p68ba1393bb)" d="M 526.571654 225.269455 
L 531.135502 225.269455 
L 531.135502 105.083018 
L 526.571654 105.083018 
z
" style="fill:#b47cc7;opacity:0.4;stroke:#1a1a1a;stroke-linejoin:miter;stroke-width:0.3;"/>
   </g>
   <g id="patch_28">
    <path clip-path="url(#p68ba1393bb)" d="M 531.135502 225.269455 
L 535.699351 225.269455 
L 535.699351 126.226928 
L 531.135502 126.226928 
z
" style="fill:#b47cc7;opacity:0.4;stroke:#1a1a1a;stroke-linejoin:miter;stroke-width:0.3;"/>
   </g>
   <g id="patch_29">
    <path clip-path="url(#p68ba1393bb)" d="M 535.699351 225.269455 
L 540.263199 225.269455 
L 540.263199 137.077092 
L 535.699351 137.077092 
z
" style="fill:#b47cc7;opacity:0.4;stroke:#1a1a1a;stroke-linejoin:miter;stroke-width:0.3;"/>
   </g>
   <g id="patch_30">
    <path clip-path="url(#p68ba1393bb)" d="M 540.263199 225.269455 
L 544.827047 225.269455 
L 544.827047 153.491444 
L 540.263199 153.491444 
z
" style="fill:#b47cc7;opacity:0.4;stroke:#1a1a1a;stroke-linejoin:miter;stroke-width:0.3;"/>
   </g>
   <g id="patch_31">
    <path clip-path="url(#p68ba1393bb)" d="M 544.827047 225.269455 
L 549.390896 225.269455 
L 549.390896 160.168468 
L 544.827047 160.168468 
z
" style="fill:#b47cc7;opacity:0.4;stroke:#1a1a1a;stroke-linejoin:miter;stroke-width:0.3;"/>
   </g>
   <g id="patch_32">
    <path clip-path="url(#p68ba1393bb)" d="M 549.390896 225.269455 
L 553.954744 225.269455 
L 553.954744 179.364913 
L 549.390896 179.364913 
z
" style="fill:#b47cc7;opacity:0.4;stroke:#1a1a1a;stroke-linejoin:miter;stroke-width:0.3;"/>
   </g>
   <g id="patch_33">
    <path clip-path="url(#p68ba1393bb)" d="M 553.954744 225.269455 
L 558.518593 225.269455 
L 558.518593 186.876565 
L 553.954744 186.876565 
z
" style="fill:#b47cc7;opacity:0.4;stroke:#1a1a1a;stroke-linejoin:miter;stroke-width:0.3;"/>
   </g>
   <g id="patch_34">
    <path clip-path="url(#p68ba1393bb)" d="M 558.518593 225.269455 
L 563.082441 225.269455 
L 563.082441 198.004939 
L 558.518593 198.004939 
z
" style="fill:#b47cc7;opacity:0.4;stroke:#1a1a1a;stroke-linejoin:miter;stroke-width:0.3;"/>
   </g>
   <g id="patch_35">
    <path clip-path="url(#p68ba1393bb)" d="M 563.082441 225.269455 
L 567.646289 225.269455 
L 567.646289 200.230614 
L 563.082441 200.230614 
z
" style="fill:#b47cc7;opacity:0.4;stroke:#1a1a1a;stroke-linejoin:miter;stroke-width:0.3;"/>
   </g>
   <g id="patch_36">
    <path clip-path="url(#p68ba1393bb)" d="M 567.646289 225.269455 
L 572.210138 225.269455 
L 572.210138 208.298685 
L 567.646289 208.298685 
z
" style="fill:#b47cc7;opacity:0.4;stroke:#1a1a1a;stroke-linejoin:miter;stroke-width:0.3;"/>
   </g>
   <g id="patch_37">
    <path clip-path="url(#p68ba1393bb)" d="M 572.210138 225.269455 
L 576.773986 225.269455 
L 576.773986 213.584662 
L 572.210138 213.584662 
z
" style="fill:#b47cc7;opacity:0.4;stroke:#1a1a1a;stroke-linejoin:miter;stroke-width:0.3;"/>
   </g>
   <g id="patch_38">
    <path clip-path="url(#p68ba1393bb)" d="M 576.773986 225.269455 
L 581.337834 225.269455 
L 581.337834 217.479593 
L 576.773986 217.479593 
z
" style="fill:#b47cc7;opacity:0.4;stroke:#1a1a1a;stroke-linejoin:miter;stroke-width:0.3;"/>
   </g>
   <g id="patch_39">
    <path clip-path="url(#p68ba1393bb)" d="M 581.337834 225.269455 
L 585.901683 225.269455 
L 585.901683 219.705268 
L 581.337834 219.705268 
z
" style="fill:#b47cc7;opacity:0.4;stroke:#1a1a1a;stroke-linejoin:miter;stroke-width:0.3;"/>
   </g>
   <g id="patch_40">
    <path clip-path="url(#p68ba1393bb)" d="M 585.901683 225.269455 
L 590.465531 225.269455 
L 590.465531 221.930942 
L 585.901683 221.930942 
z
" style="fill:#b47cc7;opacity:0.4;stroke:#1a1a1a;stroke-linejoin:miter;stroke-width:0.3;"/>
   </g>
   <g id="patch_41">
    <path clip-path="url(#p68ba1393bb)" d="M 590.465531 225.269455 
L 595.029379 225.269455 
L 595.029379 222.76557 
L 590.465531 222.76557 
z
" style="fill:#b47cc7;opacity:0.4;stroke:#1a1a1a;stroke-linejoin:miter;stroke-width:0.3;"/>
   </g>
   <g id="patch_42">
    <path clip-path="url(#p68ba1393bb)" d="M 595.029379 225.269455 
L 599.593228 225.269455 
L 599.593228 220.818105 
L 595.029379 220.818105 
z
" style="fill:#b47cc7;opacity:0.4;stroke:#1a1a1a;stroke-linejoin:miter;stroke-width:0.3;"/>
   </g>
   <g id="patch_43">
    <path clip-path="url(#p68ba1393bb)" d="M 599.593228 225.269455 
L 604.157076 225.269455 
L 604.157076 222.76557 
L 599.593228 222.76557 
z
" style="fill:#b47cc7;opacity:0.4;stroke:#1a1a1a;stroke-linejoin:miter;stroke-width:0.3;"/>
   </g>
   <g id="patch_44">
    <path clip-path="url(#p68ba1393bb)" d="M 604.157076 225.269455 
L 608.720925 225.269455 
L 608.720925 223.878408 
L 604.157076 223.878408 
z
" style="fill:#b47cc7;opacity:0.4;stroke:#1a1a1a;stroke-linejoin:miter;stroke-width:0.3;"/>
   </g>
   <g id="patch_45">
    <path clip-path="url(#p68ba1393bb)" d="M 608.720925 225.269455 
L 613.284773 225.269455 
L 613.284773 223.878408 
L 608.720925 223.878408 
z
" style="fill:#b47cc7;opacity:0.4;stroke:#1a1a1a;stroke-linejoin:miter;stroke-width:0.3;"/>
   </g>
   <g id="patch_46">
    <path clip-path="url(#p68ba1393bb)" d="M 613.284773 225.269455 
L 617.848621 225.269455 
L 617.848621 224.434827 
L 613.284773 224.434827 
z
" style="fill:#b47cc7;opacity:0.4;stroke:#1a1a1a;stroke-linejoin:miter;stroke-width:0.3;"/>
   </g>
   <g id="patch_47">
    <path clip-path="url(#p68ba1393bb)" d="M 617.848621 225.269455 
L 622.41247 225.269455 
L 622.41247 224.991245 
L 617.848621 224.991245 
z
" style="fill:#b47cc7;opacity:0.4;stroke:#1a1a1a;stroke-linejoin:miter;stroke-width:0.3;"/>
   </g>
   <g id="patch_48">
    <path clip-path="url(#p68ba1393bb)" d="M 622.41247 225.269455 
L 626.976318 225.269455 
L 626.976318 225.269455 
L 622.41247 225.269455 
z
" style="fill:#b47cc7;opacity:0.4;stroke:#1a1a1a;stroke-linejoin:miter;stroke-width:0.3;"/>
   </g>
   <g id="patch_49">
    <path clip-path="url(#p68ba1393bb)" d="M 626.976318 225.269455 
L 631.540166 225.269455 
L 631.540166 224.991245 
L 626.976318 224.991245 
z
" style="fill:#b47cc7;opacity:0.4;stroke:#1a1a1a;stroke-linejoin:miter;stroke-width:0.3;"/>
   </g>
   <g id="patch_50">
    <path clip-path="url(#p68ba1393bb)" d="M 631.540166 225.269455 
L 636.104015 225.269455 
L 636.104015 225.269455 
L 631.540166 225.269455 
z
" style="fill:#b47cc7;opacity:0.4;stroke:#1a1a1a;stroke-linejoin:miter;stroke-width:0.3;"/>
   </g>
   <g id="patch_51">
    <path clip-path="url(#p68ba1393bb)" d="M 636.104015 225.269455 
L 640.667863 225.269455 
L 640.667863 225.269455 
L 636.104015 225.269455 
z
" style="fill:#b47cc7;opacity:0.4;stroke:#1a1a1a;stroke-linejoin:miter;stroke-width:0.3;"/>
   </g>
   <g id="patch_52">
    <path clip-path="url(#p68ba1393bb)" d="M 640.667863 225.269455 
L 645.231712 225.269455 
L 645.231712 224.991245 
L 640.667863 224.991245 
z
" style="fill:#b47cc7;opacity:0.4;stroke:#1a1a1a;stroke-linejoin:miter;stroke-width:0.3;"/>
   </g>
   <g id="line2d_8">
    <path clip-path="url(#p68ba1393bb)" d="M 403.808458 225.268162 
L 406.380721 225.263103 
L 408.952985 225.246955 
L 411.525248 225.211329 
L 414.097512 225.157564 
L 416.669775 225.102942 
L 419.242039 225.065018 
L 421.814302 225.033458 
L 424.386566 224.952234 
L 426.958829 224.731837 
L 429.531093 224.29598 
L 432.103357 223.59544 
L 434.67562 222.52673 
L 437.247884 220.887591 
L 439.820147 218.540602 
L 442.392411 215.61653 
L 444.964674 212.432176 
L 447.536938 209.153467 
L 450.109201 205.547603 
L 452.681465 201.095302 
L 455.253728 195.387696 
L 457.825992 188.40415 
L 460.398255 180.391593 
L 462.970519 171.537698 
L 465.542782 161.873806 
L 468.115046 151.521071 
L 470.687309 140.766897 
L 473.259573 129.637122 
L 475.831837 117.781018 
L 478.4041 105.313797 
L 480.976364 93.435529 
L 483.548627 83.516543 
L 486.120891 75.647447 
L 488.693154 68.63993 
L 491.265418 61.307036 
L 493.837681 53.371671 
L 496.409945 45.657335 
L 498.982208 39.734646 
L 501.554472 36.922024 
L 504.126735 37.54803 
L 506.698999 41.00027 
L 509.271262 46.104811 
L 511.843526 51.972109 
L 514.415789 58.659662 
L 516.988053 66.434988 
L 519.560316 74.826168 
L 522.13258 83.149904 
L 524.704844 91.473643 
L 527.277107 100.389228 
L 529.849371 110.04425 
L 532.421634 119.826003 
L 534.993898 128.953121 
L 537.566161 137.047169 
L 540.138425 144.189058 
L 542.710688 150.817654 
L 545.282952 157.591438 
L 547.855215 164.926843 
L 550.427479 172.540508 
L 552.999742 179.70427 
L 555.572006 185.911786 
L 558.144269 191.076003 
L 560.716533 195.316659 
L 563.288796 198.903356 
L 565.86106 202.229942 
L 568.433324 205.56795 
L 571.005587 208.909287 
L 573.577851 212.053369 
L 576.150114 214.734735 
L 578.722378 216.783956 
L 581.294641 218.285829 
L 583.866905 219.482528 
L 586.439168 220.498322 
L 589.011432 221.271776 
L 591.583695 221.725803 
L 594.155959 221.905077 
L 596.728222 221.996668 
L 599.300486 222.224824 
L 601.872749 222.652356 
L 604.445013 223.137687 
L 607.017276 223.532763 
L 609.58954 223.834626 
L 612.161803 224.117623 
L 614.734067 224.414904 
L 617.306331 224.70162 
L 619.878594 224.934076 
L 622.450858 225.079793 
L 625.023121 225.137474 
L 627.595385 225.144632 
L 630.167648 225.152477 
L 632.739912 225.18226 
L 635.312175 225.215143 
L 637.884439 225.223647 
L 640.456702 225.200909 
L 643.028966 225.167181 
L 645.601229 225.154886 
L 648.173493 225.177499 
L 650.745756 225.216886 
L 653.31802 225.248065 
L 655.890283 225.263261 
L 658.462547 225.268178 
" style="fill:none;stroke:#b47cc7;stroke-linecap:round;stroke-width:1.5;"/>
   </g>
   <g id="patch_53">
    <path d="M 46.055092 225.269455 
L 734.747467 225.269455 
" style="fill:none;stroke:#262626;stroke-linecap:square;stroke-linejoin:miter;stroke-width:1.25;"/>
   </g>
   <g id="legend_1">
    <g id="patch_54">
     <path d="M 563.337311 50.575168 
L 593.337311 50.575168 
L 593.337311 40.075168 
L 563.337311 40.075168 
z
" style="fill:#b47cc7;opacity:0.4;stroke:#1a1a1a;stroke-linejoin:miter;stroke-width:0.3;"/>
    </g>
    <g id="text_1">
     <!-- i/o bound request -->
     <defs>
      <path d="M 14.703125 0 
L 6.546875 0 
L 6.546875 71.578125 
L 15.328125 71.578125 
L 15.328125 46.046875 
Q 20.90625 53.03125 29.546875 53.03125 
Q 34.328125 53.03125 38.59375 51.09375 
Q 42.875 49.171875 45.625 45.671875 
Q 48.390625 42.1875 49.953125 37.25 
Q 51.515625 32.328125 51.515625 26.703125 
Q 51.515625 13.375 44.921875 6.09375 
Q 38.328125 -1.171875 29.109375 -1.171875 
Q 19.921875 -1.171875 14.703125 6.5 
z
M 14.59375 26.3125 
Q 14.59375 17 17.140625 12.84375 
Q 21.296875 6.0625 28.375 6.0625 
Q 34.125 6.0625 38.328125 11.0625 
Q 42.53125 16.0625 42.53125 25.984375 
Q 42.53125 36.140625 38.5 40.96875 
Q 34.46875 45.796875 28.765625 45.796875 
Q 23 45.796875 18.796875 40.796875 
Q 14.59375 35.796875 14.59375 26.3125 
" id="ArialMT-62"/>
      <path d="M 42.09375 16.703125 
L 51.171875 15.578125 
Q 49.03125 7.625 43.21875 3.21875 
Q 37.40625 -1.171875 28.375 -1.171875 
Q 17 -1.171875 10.328125 5.828125 
Q 3.65625 12.84375 3.65625 25.484375 
Q 3.65625 38.578125 10.390625 45.796875 
Q 17.140625 53.03125 27.875 53.03125 
Q 38.28125 53.03125 44.875 45.953125 
Q 51.46875 38.875 51.46875 26.03125 
Q 51.46875 25.25 51.421875 23.6875 
L 12.75 23.6875 
Q 13.234375 15.140625 17.578125 10.59375 
Q 21.921875 6.0625 28.421875 6.0625 
Q 33.25 6.0625 36.671875 8.59375 
Q 40.09375 11.140625 42.09375 16.703125 
M 13.234375 30.90625 
L 42.1875 30.90625 
Q 41.609375 37.453125 38.875 40.71875 
Q 34.671875 45.796875 27.984375 45.796875 
Q 21.921875 45.796875 17.796875 41.75 
Q 13.671875 37.703125 13.234375 30.90625 
" id="ArialMT-65"/>
      <path d="M 40.234375 0 
L 40.234375 6.546875 
Q 35.296875 -1.171875 25.734375 -1.171875 
Q 19.53125 -1.171875 14.328125 2.25 
Q 9.125 5.671875 6.265625 11.796875 
Q 3.421875 17.921875 3.421875 25.875 
Q 3.421875 33.640625 6 39.96875 
Q 8.59375 46.296875 13.765625 49.65625 
Q 18.953125 53.03125 25.34375 53.03125 
Q 30.03125 53.03125 33.6875 51.046875 
Q 37.359375 49.078125 39.65625 45.90625 
L 39.65625 71.578125 
L 48.390625 71.578125 
L 48.390625 0 
z
M 12.453125 25.875 
Q 12.453125 15.921875 16.640625 10.984375 
Q 20.84375 6.0625 26.5625 6.0625 
Q 32.328125 6.0625 36.34375 10.765625 
Q 40.375 15.484375 40.375 25.140625 
Q 40.375 35.796875 36.265625 40.765625 
Q 32.171875 45.75 26.171875 45.75 
Q 20.3125 45.75 16.375 40.96875 
Q 12.453125 36.1875 12.453125 25.875 
" id="ArialMT-64"/>
      <path d="M 25.78125 7.859375 
L 27.046875 0.09375 
Q 23.34375 -0.6875 20.40625 -0.6875 
Q 15.625 -0.6875 12.984375 0.828125 
Q 10.359375 2.34375 9.28125 4.8125 
Q 8.203125 7.28125 8.203125 15.1875 
L 8.203125 45.015625 
L 1.765625 45.015625 
L 1.765625 51.859375 
L 8.203125 51.859375 
L 8.203125 64.703125 
L 16.9375 69.96875 
L 16.9375 51.859375 
L 25.78125 51.859375 
L 25.78125 45.015625 
L 16.9375 45.015625 
L 16.9375 14.703125 
Q 16.9375 10.9375 17.40625 9.859375 
Q 17.875 8.796875 18.921875 8.15625 
Q 19.96875 7.515625 21.921875 7.515625 
Q 23.390625 7.515625 25.78125 7.859375 
" id="ArialMT-74"/>
      <path d="M 0 -1.21875 
L 20.75 72.796875 
L 27.78125 72.796875 
L 7.078125 -1.21875 
z
" id="ArialMT-2f"/>
      <path d="M 6.640625 61.46875 
L 6.640625 71.578125 
L 15.4375 71.578125 
L 15.4375 61.46875 
z
M 6.640625 0 
L 6.640625 51.859375 
L 15.4375 51.859375 
L 15.4375 0 
z
" id="ArialMT-69"/>
      <path d="M 39.65625 -19.875 
L 39.65625 5.515625 
Q 37.59375 2.640625 33.90625 0.734375 
Q 30.21875 -1.171875 26.078125 -1.171875 
Q 16.84375 -1.171875 10.171875 6.203125 
Q 3.515625 13.578125 3.515625 26.421875 
Q 3.515625 34.234375 6.21875 40.421875 
Q 8.9375 46.625 14.078125 49.828125 
Q 19.234375 53.03125 25.390625 53.03125 
Q 35.015625 53.03125 40.53125 44.921875 
L 40.53125 51.859375 
L 48.4375 51.859375 
L 48.4375 -19.875 
z
M 12.546875 26.078125 
Q 12.546875 16.0625 16.75 11.0625 
Q 20.953125 6.0625 26.8125 6.0625 
Q 32.421875 6.0625 36.46875 10.8125 
Q 40.53125 15.578125 40.53125 25.296875 
Q 40.53125 35.640625 36.25 40.859375 
Q 31.984375 46.09375 26.21875 46.09375 
Q 20.515625 46.09375 16.53125 41.234375 
Q 12.546875 36.375 12.546875 26.078125 
" id="ArialMT-71"/>
      <path d="M 6.5 0 
L 6.5 51.859375 
L 14.40625 51.859375 
L 14.40625 44 
Q 17.4375 49.515625 20 51.265625 
Q 22.5625 53.03125 25.640625 53.03125 
Q 30.078125 53.03125 34.671875 50.203125 
L 31.640625 42.046875 
Q 28.421875 43.953125 25.203125 43.953125 
Q 22.3125 43.953125 20.015625 42.21875 
Q 17.71875 40.484375 16.75 37.40625 
Q 15.28125 32.71875 15.28125 27.15625 
L 15.28125 0 
z
" id="ArialMT-72"/>
      <path d="M 3.078125 15.484375 
L 11.765625 16.84375 
Q 12.5 11.625 15.84375 8.84375 
Q 19.1875 6.0625 25.203125 6.0625 
Q 31.25 6.0625 34.171875 8.515625 
Q 37.109375 10.984375 37.109375 14.3125 
Q 37.109375 17.28125 34.515625 19 
Q 32.71875 20.171875 25.53125 21.96875 
Q 15.875 24.421875 12.140625 26.203125 
Q 8.40625 27.984375 6.46875 31.125 
Q 4.546875 34.28125 4.546875 38.09375 
Q 4.546875 41.546875 6.125 44.5 
Q 7.71875 47.46875 10.453125 49.421875 
Q 12.5 50.921875 16.03125 51.96875 
Q 19.578125 53.03125 23.640625 53.03125 
Q 29.734375 53.03125 34.34375 51.265625 
Q 38.96875 49.515625 41.15625 46.5 
Q 43.359375 43.5 44.1875 38.484375 
L 35.59375 37.3125 
Q 35.015625 41.3125 32.203125 43.546875 
Q 29.390625 45.796875 24.265625 45.796875 
Q 18.21875 45.796875 15.625 43.796875 
Q 13.03125 41.796875 13.03125 39.109375 
Q 13.03125 37.40625 14.109375 36.03125 
Q 15.1875 34.625 17.484375 33.6875 
Q 18.796875 33.203125 25.25 31.453125 
Q 34.578125 28.953125 38.25 27.359375 
Q 41.9375 25.78125 44.03125 22.75 
Q 46.140625 19.734375 46.140625 15.234375 
Q 46.140625 10.84375 43.578125 6.953125 
Q 41.015625 3.078125 36.171875 0.953125 
Q 31.34375 -1.171875 25.25 -1.171875 
Q 15.140625 -1.171875 9.84375 3.03125 
Q 4.546875 7.234375 3.078125 15.484375 
" id="ArialMT-73"/>
      <path d="M 3.328125 25.921875 
Q 3.328125 40.328125 11.328125 47.265625 
Q 18.015625 53.03125 27.640625 53.03125 
Q 38.328125 53.03125 45.109375 46.015625 
Q 51.90625 39.015625 51.90625 26.65625 
Q 51.90625 16.65625 48.90625 10.90625 
Q 45.90625 5.171875 40.15625 2 
Q 34.421875 -1.171875 27.640625 -1.171875 
Q 16.75 -1.171875 10.03125 5.8125 
Q 3.328125 12.796875 3.328125 25.921875 
M 12.359375 25.921875 
Q 12.359375 15.96875 16.703125 11.015625 
Q 21.046875 6.0625 27.640625 6.0625 
Q 34.1875 6.0625 38.53125 11.03125 
Q 42.875 16.015625 42.875 26.21875 
Q 42.875 35.84375 38.5 40.796875 
Q 34.125 45.75 27.640625 45.75 
Q 21.046875 45.75 16.703125 40.8125 
Q 12.359375 35.890625 12.359375 25.921875 
" id="ArialMT-6f"/>
      <path d="M 6.59375 0 
L 6.59375 51.859375 
L 14.5 51.859375 
L 14.5 44.484375 
Q 20.21875 53.03125 31 53.03125 
Q 35.6875 53.03125 39.625 51.34375 
Q 43.5625 49.65625 45.515625 46.921875 
Q 47.46875 44.1875 48.25 40.4375 
Q 48.734375 37.984375 48.734375 31.890625 
L 48.734375 0 
L 39.9375 0 
L 39.9375 31.546875 
Q 39.9375 36.921875 38.90625 39.578125 
Q 37.890625 42.234375 35.28125 43.8125 
Q 32.671875 45.40625 29.15625 45.40625 
Q 23.53125 45.40625 19.453125 41.84375 
Q 15.375 38.28125 15.375 28.328125 
L 15.375 0 
z
" id="ArialMT-6e"/>
      <path d="M 40.578125 0 
L 40.578125 7.625 
Q 34.515625 -1.171875 24.125 -1.171875 
Q 19.53125 -1.171875 15.546875 0.578125 
Q 11.578125 2.34375 9.640625 5 
Q 7.71875 7.671875 6.9375 11.53125 
Q 6.390625 14.109375 6.390625 19.734375 
L 6.390625 51.859375 
L 15.1875 51.859375 
L 15.1875 23.09375 
Q 15.1875 16.21875 15.71875 13.8125 
Q 16.546875 10.359375 19.234375 8.375 
Q 21.921875 6.390625 25.875 6.390625 
Q 29.828125 6.390625 33.296875 8.421875 
Q 36.765625 10.453125 38.203125 13.9375 
Q 39.65625 17.4375 39.65625 24.078125 
L 39.65625 51.859375 
L 48.4375 51.859375 
L 48.4375 0 
z
" id="ArialMT-75"/>
      <path id="ArialMT-20"/>
     </defs>
     <g style="fill:#262626;" transform="translate(605.337310547 50.5751676136)scale(0.15 -0.15)">
      <use xlink:href="#ArialMT-69"/>
      <use x="22.216796875" xlink:href="#ArialMT-2f"/>
      <use x="50.0" xlink:href="#ArialMT-6f"/>
      <use x="105.615234375" xlink:href="#ArialMT-20"/>
      <use x="133.3984375" xlink:href="#ArialMT-62"/>
      <use x="189.013671875" xlink:href="#ArialMT-6f"/>
      <use x="244.62890625" xlink:href="#ArialMT-75"/>
      <use x="300.244140625" xlink:href="#ArialMT-6e"/>
      <use x="355.859375" xlink:href="#ArialMT-64"/>
      <use x="411.474609375" xlink:href="#ArialMT-20"/>
      <use x="439.2578125" xlink:href="#ArialMT-72"/>
      <use x="472.55859375" xlink:href="#ArialMT-65"/>
      <use x="528.173828125" xlink:href="#ArialMT-71"/>
      <use x="583.7890625" xlink:href="#ArialMT-75"/>
      <use x="639.404296875" xlink:href="#ArialMT-65"/>
      <use x="695.01953125" xlink:href="#ArialMT-73"/>
      <use x="745.01953125" xlink:href="#ArialMT-74"/>
     </g>
    </g>
   </g>
  </g>
  <g id="axes_2">
   <g id="patch_55">
    <path d="M 46.055092 450.538909 
L 734.747467 450.538909 
L 734.747467 251.425091 
L 46.055092 251.425091 
z
" style="fill:#ffffff;"/>
   </g>
   <g id="matplotlib.axis_3">
    <g id="xtick_8">
     <g id="line2d_9">
      <g>
       <use style="fill:#262626;stroke:#262626;" x="46.0550917969" xlink:href="#maee9e74b30" y="450.538909091"/>
      </g>
     </g>
     <g id="text_2">
      <!-- −0.1 -->
      <defs>
       <path d="M 4.15625 35.296875 
Q 4.15625 48 6.765625 55.734375 
Q 9.375 63.484375 14.515625 67.671875 
Q 19.671875 71.875 27.484375 71.875 
Q 33.25 71.875 37.59375 69.546875 
Q 41.9375 67.234375 44.765625 62.859375 
Q 47.609375 58.5 49.21875 52.21875 
Q 50.828125 45.953125 50.828125 35.296875 
Q 50.828125 22.703125 48.234375 14.96875 
Q 45.65625 7.234375 40.5 3 
Q 35.359375 -1.21875 27.484375 -1.21875 
Q 17.140625 -1.21875 11.234375 6.203125 
Q 4.15625 15.140625 4.15625 35.296875 
M 13.1875 35.296875 
Q 13.1875 17.671875 17.3125 11.828125 
Q 21.4375 6 27.484375 6 
Q 33.546875 6 37.671875 11.859375 
Q 41.796875 17.71875 41.796875 35.296875 
Q 41.796875 52.984375 37.671875 58.78125 
Q 33.546875 64.59375 27.390625 64.59375 
Q 21.34375 64.59375 17.71875 59.46875 
Q 13.1875 52.9375 13.1875 35.296875 
" id="ArialMT-30"/>
       <path d="M 37.25 0 
L 28.46875 0 
L 28.46875 56 
Q 25.296875 52.984375 20.140625 49.953125 
Q 14.984375 46.921875 10.890625 45.40625 
L 10.890625 53.90625 
Q 18.265625 57.375 23.78125 62.296875 
Q 29.296875 67.234375 31.59375 71.875 
L 37.25 71.875 
z
" id="ArialMT-31"/>
       <path d="M 52.828125 31.203125 
L 5.5625 31.203125 
L 5.5625 39.40625 
L 52.828125 39.40625 
z
" id="ArialMT-2212"/>
       <path d="M 9.078125 0 
L 9.078125 10.015625 
L 19.09375 10.015625 
L 19.09375 0 
z
" id="ArialMT-2e"/>
      </defs>
      <g style="fill:#262626;" transform="translate(31.2496230469 468.275627841)scale(0.15 -0.15)">
       <use xlink:href="#ArialMT-2212"/>
       <use x="58.3984375" xlink:href="#ArialMT-30"/>
       <use x="114.013671875" xlink:href="#ArialMT-2e"/>
       <use x="141.796875" xlink:href="#ArialMT-31"/>
      </g>
     </g>
    </g>
    <g id="xtick_9">
     <g id="line2d_10">
      <g>
       <use style="fill:#262626;stroke:#262626;" x="160.837154297" xlink:href="#maee9e74b30" y="450.538909091"/>
      </g>
     </g>
     <g id="text_3">
      <!-- 0.0 -->
      <g style="fill:#262626;" transform="translate(150.412154297 468.275627841)scale(0.15 -0.15)">
       <use xlink:href="#ArialMT-30"/>
       <use x="55.615234375" xlink:href="#ArialMT-2e"/>
       <use x="83.3984375" xlink:href="#ArialMT-30"/>
      </g>
     </g>
    </g>
    <g id="xtick_10">
     <g id="line2d_11">
      <g>
       <use style="fill:#262626;stroke:#262626;" x="275.619216797" xlink:href="#maee9e74b30" y="450.538909091"/>
      </g>
     </g>
     <g id="text_4">
      <!-- 0.1 -->
      <g style="fill:#262626;" transform="translate(265.194216797 468.275627841)scale(0.15 -0.15)">
       <use xlink:href="#ArialMT-30"/>
       <use x="55.615234375" xlink:href="#ArialMT-2e"/>
       <use x="83.3984375" xlink:href="#ArialMT-31"/>
      </g>
     </g>
    </g>
    <g id="xtick_11">
     <g id="line2d_12">
      <g>
       <use style="fill:#262626;stroke:#262626;" x="390.401279297" xlink:href="#maee9e74b30" y="450.538909091"/>
      </g>
     </g>
     <g id="text_5">
      <!-- 0.2 -->
      <defs>
       <path d="M 50.34375 8.453125 
L 50.34375 0 
L 3.03125 0 
Q 2.9375 3.171875 4.046875 6.109375 
Q 5.859375 10.9375 9.828125 15.625 
Q 13.8125 20.3125 21.34375 26.46875 
Q 33.015625 36.03125 37.109375 41.625 
Q 41.21875 47.21875 41.21875 52.203125 
Q 41.21875 57.421875 37.46875 61 
Q 33.734375 64.59375 27.734375 64.59375 
Q 21.390625 64.59375 17.578125 60.78125 
Q 13.765625 56.984375 13.71875 50.25 
L 4.6875 51.171875 
Q 5.609375 61.28125 11.65625 66.578125 
Q 17.71875 71.875 27.9375 71.875 
Q 38.234375 71.875 44.234375 66.15625 
Q 50.25 60.453125 50.25 52 
Q 50.25 47.703125 48.484375 43.546875 
Q 46.734375 39.40625 42.65625 34.8125 
Q 38.578125 30.21875 29.109375 22.21875 
Q 21.1875 15.578125 18.9375 13.203125 
Q 16.703125 10.84375 15.234375 8.453125 
z
" id="ArialMT-32"/>
      </defs>
      <g style="fill:#262626;" transform="translate(379.976279297 468.275627841)scale(0.15 -0.15)">
       <use xlink:href="#ArialMT-30"/>
       <use x="55.615234375" xlink:href="#ArialMT-2e"/>
       <use x="83.3984375" xlink:href="#ArialMT-32"/>
      </g>
     </g>
    </g>
    <g id="xtick_12">
     <g id="line2d_13">
      <g>
       <use style="fill:#262626;stroke:#262626;" x="505.183341797" xlink:href="#maee9e74b30" y="450.538909091"/>
      </g>
     </g>
     <g id="text_6">
      <!-- 0.3 -->
      <defs>
       <path d="M 4.203125 18.890625 
L 12.984375 20.0625 
Q 14.5 12.59375 18.140625 9.296875 
Q 21.78125 6 27 6 
Q 33.203125 6 37.46875 10.296875 
Q 41.75 14.59375 41.75 20.953125 
Q 41.75 27 37.796875 30.921875 
Q 33.84375 34.859375 27.734375 34.859375 
Q 25.25 34.859375 21.53125 33.890625 
L 22.515625 41.609375 
Q 23.390625 41.5 23.921875 41.5 
Q 29.546875 41.5 34.03125 44.421875 
Q 38.53125 47.359375 38.53125 53.46875 
Q 38.53125 58.296875 35.25 61.46875 
Q 31.984375 64.65625 26.8125 64.65625 
Q 21.6875 64.65625 18.265625 61.421875 
Q 14.84375 58.203125 13.875 51.765625 
L 5.078125 53.328125 
Q 6.6875 62.15625 12.390625 67.015625 
Q 18.109375 71.875 26.609375 71.875 
Q 32.46875 71.875 37.390625 69.359375 
Q 42.328125 66.84375 44.9375 62.5 
Q 47.5625 58.15625 47.5625 53.265625 
Q 47.5625 48.640625 45.0625 44.828125 
Q 42.578125 41.015625 37.703125 38.765625 
Q 44.046875 37.3125 47.5625 32.6875 
Q 51.078125 28.078125 51.078125 21.140625 
Q 51.078125 11.765625 44.234375 5.25 
Q 37.40625 -1.265625 26.953125 -1.265625 
Q 17.53125 -1.265625 11.296875 4.34375 
Q 5.078125 9.96875 4.203125 18.890625 
" id="ArialMT-33"/>
      </defs>
      <g style="fill:#262626;" transform="translate(494.758341797 468.275627841)scale(0.15 -0.15)">
       <use xlink:href="#ArialMT-30"/>
       <use x="55.615234375" xlink:href="#ArialMT-2e"/>
       <use x="83.3984375" xlink:href="#ArialMT-33"/>
      </g>
     </g>
    </g>
    <g id="xtick_13">
     <g id="line2d_14">
      <g>
       <use style="fill:#262626;stroke:#262626;" x="619.965404297" xlink:href="#maee9e74b30" y="450.538909091"/>
      </g>
     </g>
     <g id="text_7">
      <!-- 0.4 -->
      <defs>
       <path d="M 32.328125 0 
L 32.328125 17.140625 
L 1.265625 17.140625 
L 1.265625 25.203125 
L 33.9375 71.578125 
L 41.109375 71.578125 
L 41.109375 25.203125 
L 50.78125 25.203125 
L 50.78125 17.140625 
L 41.109375 17.140625 
L 41.109375 0 
z
M 32.328125 25.203125 
L 32.328125 57.46875 
L 9.90625 25.203125 
z
" id="ArialMT-34"/>
      </defs>
      <g style="fill:#262626;" transform="translate(609.540404297 468.275627841)scale(0.15 -0.15)">
       <use xlink:href="#ArialMT-30"/>
       <use x="55.615234375" xlink:href="#ArialMT-2e"/>
       <use x="83.3984375" xlink:href="#ArialMT-34"/>
      </g>
     </g>
    </g>
    <g id="xtick_14">
     <g id="line2d_15">
      <g>
       <use style="fill:#262626;stroke:#262626;" x="734.747466797" xlink:href="#maee9e74b30" y="450.538909091"/>
      </g>
     </g>
     <g id="text_8">
      <!-- 0.5 -->
      <defs>
       <path d="M 4.15625 18.75 
L 13.375 19.53125 
Q 14.40625 12.796875 18.140625 9.390625 
Q 21.875 6 27.15625 6 
Q 33.5 6 37.890625 10.78125 
Q 42.28125 15.578125 42.28125 23.484375 
Q 42.28125 31 38.0625 35.34375 
Q 33.84375 39.703125 27 39.703125 
Q 22.75 39.703125 19.328125 37.765625 
Q 15.921875 35.84375 13.96875 32.765625 
L 5.71875 33.84375 
L 12.640625 70.609375 
L 48.25 70.609375 
L 48.25 62.203125 
L 19.671875 62.203125 
L 15.828125 42.96875 
Q 22.265625 47.46875 29.34375 47.46875 
Q 38.71875 47.46875 45.15625 40.96875 
Q 51.609375 34.46875 51.609375 24.265625 
Q 51.609375 14.546875 45.953125 7.46875 
Q 39.0625 -1.21875 27.15625 -1.21875 
Q 17.390625 -1.21875 11.203125 4.25 
Q 5.03125 9.71875 4.15625 18.75 
" id="ArialMT-35"/>
      </defs>
      <g style="fill:#262626;" transform="translate(724.322466797 468.275627841)scale(0.15 -0.15)">
       <use xlink:href="#ArialMT-30"/>
       <use x="55.615234375" xlink:href="#ArialMT-2e"/>
       <use x="83.3984375" xlink:href="#ArialMT-35"/>
      </g>
     </g>
    </g>
    <g id="text_9">
     <!-- response time (s) -->
     <defs>
      <path d="M 23.390625 -21.046875 
Q 16.109375 -11.859375 11.078125 0.4375 
Q 6.0625 12.75 6.0625 25.921875 
Q 6.0625 37.546875 9.8125 48.1875 
Q 14.203125 60.546875 23.390625 72.796875 
L 29.6875 72.796875 
Q 23.78125 62.640625 21.875 58.296875 
Q 18.890625 51.5625 17.1875 44.234375 
Q 15.09375 35.109375 15.09375 25.875 
Q 15.09375 2.390625 29.6875 -21.046875 
z
" id="ArialMT-28"/>
      <path d="M 6.59375 -19.875 
L 6.59375 51.859375 
L 14.59375 51.859375 
L 14.59375 45.125 
Q 17.4375 49.078125 21 51.046875 
Q 24.5625 53.03125 29.640625 53.03125 
Q 36.28125 53.03125 41.359375 49.609375 
Q 46.4375 46.1875 49.015625 39.953125 
Q 51.609375 33.734375 51.609375 26.3125 
Q 51.609375 18.359375 48.75 11.984375 
Q 45.90625 5.609375 40.453125 2.21875 
Q 35.015625 -1.171875 29 -1.171875 
Q 24.609375 -1.171875 21.109375 0.6875 
Q 17.625 2.546875 15.375 5.375 
L 15.375 -19.875 
z
M 14.546875 25.640625 
Q 14.546875 15.625 18.59375 10.84375 
Q 22.65625 6.0625 28.421875 6.0625 
Q 34.28125 6.0625 38.453125 11.015625 
Q 42.625 15.96875 42.625 26.375 
Q 42.625 36.28125 38.546875 41.203125 
Q 34.46875 46.140625 28.8125 46.140625 
Q 23.1875 46.140625 18.859375 40.890625 
Q 14.546875 35.640625 14.546875 25.640625 
" id="ArialMT-70"/>
      <path d="M 12.359375 -21.046875 
L 6.0625 -21.046875 
Q 20.65625 2.390625 20.65625 25.875 
Q 20.65625 35.0625 18.5625 44.09375 
Q 16.890625 51.421875 13.921875 58.15625 
Q 12.015625 62.546875 6.0625 72.796875 
L 12.359375 72.796875 
Q 21.53125 60.546875 25.921875 48.1875 
Q 29.6875 37.546875 29.6875 25.921875 
Q 29.6875 12.75 24.625 0.4375 
Q 19.578125 -11.859375 12.359375 -21.046875 
" id="ArialMT-29"/>
      <path d="M 6.59375 0 
L 6.59375 51.859375 
L 14.453125 51.859375 
L 14.453125 44.578125 
Q 16.890625 48.390625 20.9375 50.703125 
Q 25 53.03125 30.171875 53.03125 
Q 35.9375 53.03125 39.625 50.640625 
Q 43.3125 48.25 44.828125 43.953125 
Q 50.984375 53.03125 60.84375 53.03125 
Q 68.5625 53.03125 72.703125 48.75 
Q 76.859375 44.484375 76.859375 35.59375 
L 76.859375 0 
L 68.109375 0 
L 68.109375 32.671875 
Q 68.109375 37.9375 67.25 40.25 
Q 66.40625 42.578125 64.15625 43.984375 
Q 61.921875 45.40625 58.890625 45.40625 
Q 53.421875 45.40625 49.796875 41.765625 
Q 46.1875 38.140625 46.1875 30.125 
L 46.1875 0 
L 37.40625 0 
L 37.40625 33.6875 
Q 37.40625 39.546875 35.25 42.46875 
Q 33.109375 45.40625 28.21875 45.40625 
Q 24.515625 45.40625 21.359375 43.453125 
Q 18.21875 41.5 16.796875 37.734375 
Q 15.375 33.984375 15.375 26.90625 
L 15.375 0 
z
" id="ArialMT-6d"/>
     </defs>
     <g style="fill:#262626;" transform="translate(326.677763672 488.268362216)scale(0.165 -0.165)">
      <use xlink:href="#ArialMT-72"/>
      <use x="33.30078125" xlink:href="#ArialMT-65"/>
      <use x="88.916015625" xlink:href="#ArialMT-73"/>
      <use x="138.916015625" xlink:href="#ArialMT-70"/>
      <use x="194.53125" xlink:href="#ArialMT-6f"/>
      <use x="250.146484375" xlink:href="#ArialMT-6e"/>
      <use x="305.76171875" xlink:href="#ArialMT-73"/>
      <use x="355.76171875" xlink:href="#ArialMT-65"/>
      <use x="411.376953125" xlink:href="#ArialMT-20"/>
      <use x="439.16015625" xlink:href="#ArialMT-74"/>
      <use x="466.943359375" xlink:href="#ArialMT-69"/>
      <use x="489.16015625" xlink:href="#ArialMT-6d"/>
      <use x="572.4609375" xlink:href="#ArialMT-65"/>
      <use x="628.076171875" xlink:href="#ArialMT-20"/>
      <use x="655.859375" xlink:href="#ArialMT-28"/>
      <use x="689.16015625" xlink:href="#ArialMT-73"/>
      <use x="739.16015625" xlink:href="#ArialMT-29"/>
     </g>
    </g>
   </g>
   <g id="matplotlib.axis_4"/>
   <g id="patch_56">
    <path clip-path="url(#pf2a3da86dd)" d="M 161.232048 450.538909 
L 164.76171 450.538909 
L 164.76171 259.155296 
L 161.232048 259.155296 
z
" style="fill:#4878cf;opacity:0.4;stroke:#1a1a1a;stroke-linejoin:miter;stroke-width:0.3;"/>
   </g>
   <g id="patch_57">
    <path clip-path="url(#pf2a3da86dd)" d="M 164.76171 450.538909 
L 168.291372 450.538909 
L 168.291372 292.177988 
L 164.76171 292.177988 
z
" style="fill:#4878cf;opacity:0.4;stroke:#1a1a1a;stroke-linejoin:miter;stroke-width:0.3;"/>
   </g>
   <g id="patch_58">
    <path clip-path="url(#pf2a3da86dd)" d="M 168.291372 450.538909 
L 171.821034 450.538909 
L 171.821034 295.415507 
L 168.291372 295.415507 
z
" style="fill:#4878cf;opacity:0.4;stroke:#1a1a1a;stroke-linejoin:miter;stroke-width:0.3;"/>
   </g>
   <g id="patch_59">
    <path clip-path="url(#pf2a3da86dd)" d="M 171.821034 450.538909 
L 175.350696 450.538909 
L 175.350696 299.948033 
L 171.821034 299.948033 
z
" style="fill:#4878cf;opacity:0.4;stroke:#1a1a1a;stroke-linejoin:miter;stroke-width:0.3;"/>
   </g>
   <g id="patch_60">
    <path clip-path="url(#pf2a3da86dd)" d="M 175.350696 450.538909 
L 178.880358 450.538909 
L 178.880358 310.585595 
L 175.350696 310.585595 
z
" style="fill:#4878cf;opacity:0.4;stroke:#1a1a1a;stroke-linejoin:miter;stroke-width:0.3;"/>
   </g>
   <g id="patch_61">
    <path clip-path="url(#pf2a3da86dd)" d="M 178.880358 450.538909 
L 182.41002 450.538909 
L 182.41002 357.020865 
L 178.880358 357.020865 
z
" style="fill:#4878cf;opacity:0.4;stroke:#1a1a1a;stroke-linejoin:miter;stroke-width:0.3;"/>
   </g>
   <g id="patch_62">
    <path clip-path="url(#pf2a3da86dd)" d="M 182.41002 450.538909 
L 185.939683 450.538909 
L 185.939683 424.361257 
L 182.41002 424.361257 
z
" style="fill:#4878cf;opacity:0.4;stroke:#1a1a1a;stroke-linejoin:miter;stroke-width:0.3;"/>
   </g>
   <g id="patch_63">
    <path clip-path="url(#pf2a3da86dd)" d="M 185.939683 450.538909 
L 189.469345 450.538909 
L 189.469345 446.376385 
L 185.939683 446.376385 
z
" style="fill:#4878cf;opacity:0.4;stroke:#1a1a1a;stroke-linejoin:miter;stroke-width:0.3;"/>
   </g>
   <g id="patch_64">
    <path clip-path="url(#pf2a3da86dd)" d="M 189.469345 450.538909 
L 192.999007 450.538909 
L 192.999007 448.318896 
L 189.469345 448.318896 
z
" style="fill:#4878cf;opacity:0.4;stroke:#1a1a1a;stroke-linejoin:miter;stroke-width:0.3;"/>
   </g>
   <g id="patch_65">
    <path clip-path="url(#pf2a3da86dd)" d="M 192.999007 450.538909 
L 196.528669 450.538909 
L 196.528669 449.983906 
L 192.999007 449.983906 
z
" style="fill:#4878cf;opacity:0.4;stroke:#1a1a1a;stroke-linejoin:miter;stroke-width:0.3;"/>
   </g>
   <g id="patch_66">
    <path clip-path="url(#pf2a3da86dd)" d="M 196.528669 450.538909 
L 200.058331 450.538909 
L 200.058331 449.983906 
L 196.528669 449.983906 
z
" style="fill:#4878cf;opacity:0.4;stroke:#1a1a1a;stroke-linejoin:miter;stroke-width:0.3;"/>
   </g>
   <g id="patch_67">
    <path clip-path="url(#pf2a3da86dd)" d="M 200.058331 450.538909 
L 203.587993 450.538909 
L 203.587993 449.891405 
L 200.058331 449.891405 
z
" style="fill:#4878cf;opacity:0.4;stroke:#1a1a1a;stroke-linejoin:miter;stroke-width:0.3;"/>
   </g>
   <g id="patch_68">
    <path clip-path="url(#pf2a3da86dd)" d="M 203.587993 450.538909 
L 207.117655 450.538909 
L 207.117655 450.446409 
L 203.587993 450.446409 
z
" style="fill:#4878cf;opacity:0.4;stroke:#1a1a1a;stroke-linejoin:miter;stroke-width:0.3;"/>
   </g>
   <g id="patch_69">
    <path clip-path="url(#pf2a3da86dd)" d="M 207.117655 450.538909 
L 210.647317 450.538909 
L 210.647317 450.353908 
L 207.117655 450.353908 
z
" style="fill:#4878cf;opacity:0.4;stroke:#1a1a1a;stroke-linejoin:miter;stroke-width:0.3;"/>
   </g>
   <g id="patch_70">
    <path clip-path="url(#pf2a3da86dd)" d="M 210.647317 450.538909 
L 214.176979 450.538909 
L 214.176979 450.538909 
L 210.647317 450.538909 
z
" style="fill:#4878cf;opacity:0.4;stroke:#1a1a1a;stroke-linejoin:miter;stroke-width:0.3;"/>
   </g>
   <g id="patch_71">
    <path clip-path="url(#pf2a3da86dd)" d="M 214.176979 450.538909 
L 217.706641 450.538909 
L 217.706641 450.261407 
L 214.176979 450.261407 
z
" style="fill:#4878cf;opacity:0.4;stroke:#1a1a1a;stroke-linejoin:miter;stroke-width:0.3;"/>
   </g>
   <g id="patch_72">
    <path clip-path="url(#pf2a3da86dd)" d="M 217.706641 450.538909 
L 221.236303 450.538909 
L 221.236303 450.353908 
L 217.706641 450.353908 
z
" style="fill:#4878cf;opacity:0.4;stroke:#1a1a1a;stroke-linejoin:miter;stroke-width:0.3;"/>
   </g>
   <g id="patch_73">
    <path clip-path="url(#pf2a3da86dd)" d="M 221.236303 450.538909 
L 224.765965 450.538909 
L 224.765965 450.261407 
L 221.236303 450.261407 
z
" style="fill:#4878cf;opacity:0.4;stroke:#1a1a1a;stroke-linejoin:miter;stroke-width:0.3;"/>
   </g>
   <g id="patch_74">
    <path clip-path="url(#pf2a3da86dd)" d="M 224.765965 450.538909 
L 228.295627 450.538909 
L 228.295627 450.261407 
L 224.765965 450.261407 
z
" style="fill:#4878cf;opacity:0.4;stroke:#1a1a1a;stroke-linejoin:miter;stroke-width:0.3;"/>
   </g>
   <g id="patch_75">
    <path clip-path="url(#pf2a3da86dd)" d="M 228.295627 450.538909 
L 231.825289 450.538909 
L 231.825289 450.538909 
L 228.295627 450.538909 
z
" style="fill:#4878cf;opacity:0.4;stroke:#1a1a1a;stroke-linejoin:miter;stroke-width:0.3;"/>
   </g>
   <g id="patch_76">
    <path clip-path="url(#pf2a3da86dd)" d="M 231.825289 450.538909 
L 235.354951 450.538909 
L 235.354951 450.538909 
L 231.825289 450.538909 
z
" style="fill:#4878cf;opacity:0.4;stroke:#1a1a1a;stroke-linejoin:miter;stroke-width:0.3;"/>
   </g>
   <g id="patch_77">
    <path clip-path="url(#pf2a3da86dd)" d="M 235.354951 450.538909 
L 238.884613 450.538909 
L 238.884613 450.538909 
L 235.354951 450.538909 
z
" style="fill:#4878cf;opacity:0.4;stroke:#1a1a1a;stroke-linejoin:miter;stroke-width:0.3;"/>
   </g>
   <g id="patch_78">
    <path clip-path="url(#pf2a3da86dd)" d="M 238.884613 450.538909 
L 242.414275 450.538909 
L 242.414275 450.446409 
L 238.884613 450.446409 
z
" style="fill:#4878cf;opacity:0.4;stroke:#1a1a1a;stroke-linejoin:miter;stroke-width:0.3;"/>
   </g>
   <g id="patch_79">
    <path clip-path="url(#pf2a3da86dd)" d="M 242.414275 450.538909 
L 245.943937 450.538909 
L 245.943937 450.446409 
L 242.414275 450.446409 
z
" style="fill:#4878cf;opacity:0.4;stroke:#1a1a1a;stroke-linejoin:miter;stroke-width:0.3;"/>
   </g>
   <g id="patch_80">
    <path clip-path="url(#pf2a3da86dd)" d="M 245.943937 450.538909 
L 249.473599 450.538909 
L 249.473599 450.538909 
L 245.943937 450.538909 
z
" style="fill:#4878cf;opacity:0.4;stroke:#1a1a1a;stroke-linejoin:miter;stroke-width:0.3;"/>
   </g>
   <g id="patch_81">
    <path clip-path="url(#pf2a3da86dd)" d="M 249.473599 450.538909 
L 253.003261 450.538909 
L 253.003261 450.538909 
L 249.473599 450.538909 
z
" style="fill:#4878cf;opacity:0.4;stroke:#1a1a1a;stroke-linejoin:miter;stroke-width:0.3;"/>
   </g>
   <g id="patch_82">
    <path clip-path="url(#pf2a3da86dd)" d="M 253.003261 450.538909 
L 256.532923 450.538909 
L 256.532923 450.538909 
L 253.003261 450.538909 
z
" style="fill:#4878cf;opacity:0.4;stroke:#1a1a1a;stroke-linejoin:miter;stroke-width:0.3;"/>
   </g>
   <g id="patch_83">
    <path clip-path="url(#pf2a3da86dd)" d="M 256.532923 450.538909 
L 260.062586 450.538909 
L 260.062586 450.446409 
L 256.532923 450.446409 
z
" style="fill:#4878cf;opacity:0.4;stroke:#1a1a1a;stroke-linejoin:miter;stroke-width:0.3;"/>
   </g>
   <g id="patch_84">
    <path clip-path="url(#pf2a3da86dd)" d="M 260.062586 450.538909 
L 263.592248 450.538909 
L 263.592248 450.538909 
L 260.062586 450.538909 
z
" style="fill:#4878cf;opacity:0.4;stroke:#1a1a1a;stroke-linejoin:miter;stroke-width:0.3;"/>
   </g>
   <g id="patch_85">
    <path clip-path="url(#pf2a3da86dd)" d="M 263.592248 450.538909 
L 267.12191 450.538909 
L 267.12191 450.538909 
L 263.592248 450.538909 
z
" style="fill:#4878cf;opacity:0.4;stroke:#1a1a1a;stroke-linejoin:miter;stroke-width:0.3;"/>
   </g>
   <g id="patch_86">
    <path clip-path="url(#pf2a3da86dd)" d="M 267.12191 450.538909 
L 270.651572 450.538909 
L 270.651572 450.538909 
L 267.12191 450.538909 
z
" style="fill:#4878cf;opacity:0.4;stroke:#1a1a1a;stroke-linejoin:miter;stroke-width:0.3;"/>
   </g>
   <g id="patch_87">
    <path clip-path="url(#pf2a3da86dd)" d="M 270.651572 450.538909 
L 274.181234 450.538909 
L 274.181234 450.538909 
L 270.651572 450.538909 
z
" style="fill:#4878cf;opacity:0.4;stroke:#1a1a1a;stroke-linejoin:miter;stroke-width:0.3;"/>
   </g>
   <g id="patch_88">
    <path clip-path="url(#pf2a3da86dd)" d="M 274.181234 450.538909 
L 277.710896 450.538909 
L 277.710896 450.538909 
L 274.181234 450.538909 
z
" style="fill:#4878cf;opacity:0.4;stroke:#1a1a1a;stroke-linejoin:miter;stroke-width:0.3;"/>
   </g>
   <g id="patch_89">
    <path clip-path="url(#pf2a3da86dd)" d="M 277.710896 450.538909 
L 281.240558 450.538909 
L 281.240558 450.538909 
L 277.710896 450.538909 
z
" style="fill:#4878cf;opacity:0.4;stroke:#1a1a1a;stroke-linejoin:miter;stroke-width:0.3;"/>
   </g>
   <g id="patch_90">
    <path clip-path="url(#pf2a3da86dd)" d="M 281.240558 450.538909 
L 284.77022 450.538909 
L 284.77022 450.538909 
L 281.240558 450.538909 
z
" style="fill:#4878cf;opacity:0.4;stroke:#1a1a1a;stroke-linejoin:miter;stroke-width:0.3;"/>
   </g>
   <g id="patch_91">
    <path clip-path="url(#pf2a3da86dd)" d="M 284.77022 450.538909 
L 288.299882 450.538909 
L 288.299882 450.538909 
L 284.77022 450.538909 
z
" style="fill:#4878cf;opacity:0.4;stroke:#1a1a1a;stroke-linejoin:miter;stroke-width:0.3;"/>
   </g>
   <g id="patch_92">
    <path clip-path="url(#pf2a3da86dd)" d="M 288.299882 450.538909 
L 291.829544 450.538909 
L 291.829544 450.538909 
L 288.299882 450.538909 
z
" style="fill:#4878cf;opacity:0.4;stroke:#1a1a1a;stroke-linejoin:miter;stroke-width:0.3;"/>
   </g>
   <g id="patch_93">
    <path clip-path="url(#pf2a3da86dd)" d="M 291.829544 450.538909 
L 295.359206 450.538909 
L 295.359206 450.538909 
L 291.829544 450.538909 
z
" style="fill:#4878cf;opacity:0.4;stroke:#1a1a1a;stroke-linejoin:miter;stroke-width:0.3;"/>
   </g>
   <g id="patch_94">
    <path clip-path="url(#pf2a3da86dd)" d="M 295.359206 450.538909 
L 298.888868 450.538909 
L 298.888868 450.538909 
L 295.359206 450.538909 
z
" style="fill:#4878cf;opacity:0.4;stroke:#1a1a1a;stroke-linejoin:miter;stroke-width:0.3;"/>
   </g>
   <g id="patch_95">
    <path clip-path="url(#pf2a3da86dd)" d="M 298.888868 450.538909 
L 302.41853 450.538909 
L 302.41853 450.446409 
L 298.888868 450.446409 
z
" style="fill:#4878cf;opacity:0.4;stroke:#1a1a1a;stroke-linejoin:miter;stroke-width:0.3;"/>
   </g>
   <g id="patch_96">
    <path clip-path="url(#pf2a3da86dd)" d="M 302.41853 450.538909 
L 305.948192 450.538909 
L 305.948192 450.538909 
L 302.41853 450.538909 
z
" style="fill:#4878cf;opacity:0.4;stroke:#1a1a1a;stroke-linejoin:miter;stroke-width:0.3;"/>
   </g>
   <g id="patch_97">
    <path clip-path="url(#pf2a3da86dd)" d="M 305.948192 450.538909 
L 309.477854 450.538909 
L 309.477854 450.538909 
L 305.948192 450.538909 
z
" style="fill:#4878cf;opacity:0.4;stroke:#1a1a1a;stroke-linejoin:miter;stroke-width:0.3;"/>
   </g>
   <g id="patch_98">
    <path clip-path="url(#pf2a3da86dd)" d="M 309.477854 450.538909 
L 313.007516 450.538909 
L 313.007516 450.538909 
L 309.477854 450.538909 
z
" style="fill:#4878cf;opacity:0.4;stroke:#1a1a1a;stroke-linejoin:miter;stroke-width:0.3;"/>
   </g>
   <g id="patch_99">
    <path clip-path="url(#pf2a3da86dd)" d="M 313.007516 450.538909 
L 316.537178 450.538909 
L 316.537178 450.538909 
L 313.007516 450.538909 
z
" style="fill:#4878cf;opacity:0.4;stroke:#1a1a1a;stroke-linejoin:miter;stroke-width:0.3;"/>
   </g>
   <g id="patch_100">
    <path clip-path="url(#pf2a3da86dd)" d="M 316.537178 450.538909 
L 320.06684 450.538909 
L 320.06684 450.538909 
L 316.537178 450.538909 
z
" style="fill:#4878cf;opacity:0.4;stroke:#1a1a1a;stroke-linejoin:miter;stroke-width:0.3;"/>
   </g>
   <g id="patch_101">
    <path clip-path="url(#pf2a3da86dd)" d="M 320.06684 450.538909 
L 323.596502 450.538909 
L 323.596502 450.538909 
L 320.06684 450.538909 
z
" style="fill:#4878cf;opacity:0.4;stroke:#1a1a1a;stroke-linejoin:miter;stroke-width:0.3;"/>
   </g>
   <g id="patch_102">
    <path clip-path="url(#pf2a3da86dd)" d="M 323.596502 450.538909 
L 327.126164 450.538909 
L 327.126164 450.538909 
L 323.596502 450.538909 
z
" style="fill:#4878cf;opacity:0.4;stroke:#1a1a1a;stroke-linejoin:miter;stroke-width:0.3;"/>
   </g>
   <g id="patch_103">
    <path clip-path="url(#pf2a3da86dd)" d="M 327.126164 450.538909 
L 330.655826 450.538909 
L 330.655826 450.538909 
L 327.126164 450.538909 
z
" style="fill:#4878cf;opacity:0.4;stroke:#1a1a1a;stroke-linejoin:miter;stroke-width:0.3;"/>
   </g>
   <g id="patch_104">
    <path clip-path="url(#pf2a3da86dd)" d="M 330.655826 450.538909 
L 334.185488 450.538909 
L 334.185488 450.538909 
L 330.655826 450.538909 
z
" style="fill:#4878cf;opacity:0.4;stroke:#1a1a1a;stroke-linejoin:miter;stroke-width:0.3;"/>
   </g>
   <g id="patch_105">
    <path clip-path="url(#pf2a3da86dd)" d="M 334.185488 450.538909 
L 337.715151 450.538909 
L 337.715151 450.446409 
L 334.185488 450.446409 
z
" style="fill:#4878cf;opacity:0.4;stroke:#1a1a1a;stroke-linejoin:miter;stroke-width:0.3;"/>
   </g>
   <g id="line2d_16">
    <path clip-path="url(#pf2a3da86dd)" d="M 157.846797 450.296947 
L 159.697844 434.679314 
L 161.54889 336.635956 
L 163.399937 266.826508 
L 165.250983 282.934456 
L 167.10203 288.54071 
L 168.953076 293.021386 
L 170.804123 295.883323 
L 172.655169 296.888471 
L 174.506216 303.744185 
L 176.357262 309.164333 
L 178.208309 319.093568 
L 180.059355 344.853992 
L 181.910402 383.096084 
L 183.761448 418.833274 
L 185.612495 437.742308 
L 187.463541 445.383378 
L 189.314588 447.665095 
L 191.165634 448.248658 
L 193.016681 449.713488 
L 194.867727 449.97125 
L 196.718774 449.955726 
L 198.56982 450.085519 
L 200.420867 449.944535 
L 202.271913 450.058334 
L 204.12296 450.149677 
L 205.974006 450.457156 
L 207.825053 450.393715 
L 209.676099 450.356708 
L 211.527146 450.517495 
L 213.378192 450.462772 
L 215.229239 450.304861 
L 217.080285 450.234899 
L 218.931332 450.313302 
L 220.782378 450.455238 
L 222.633425 450.263396 
L 224.484471 450.279057 
L 226.335518 450.275808 
L 228.186564 450.342273 
L 230.037611 450.521555 
L 231.888658 450.53879 
L 233.739704 450.538909 
L 235.590751 450.538903 
L 237.441797 450.53667 
L 239.292844 450.480314 
L 241.14389 450.416312 
L 242.994937 450.414627 
L 244.845983 450.494949 
L 246.69703 450.537743 
L 248.548076 450.538907 
L 250.399123 450.538909 
L 252.250169 450.538909 
L 254.101216 450.538895 
L 255.952262 450.535019 
L 257.803309 450.466354 
L 259.654355 450.447106 
L 261.505402 450.531029 
L 263.356448 450.538863 
L 265.207495 450.538909 
L 267.058541 450.538909 
L 268.909588 450.538909 
L 270.760634 450.538909 
L 272.611681 450.538909 
L 274.462727 450.538909 
L 276.313774 450.538909 
L 278.16482 450.538909 
L 280.015867 450.538909 
L 281.866913 450.538909 
L 283.71796 450.538909 
L 285.569006 450.538909 
L 287.420053 450.538909 
L 289.271099 450.538909 
L 291.122146 450.538909 
L 292.973192 450.538909 
L 294.824239 450.538888 
L 296.675285 450.533913 
L 298.526332 450.459555 
L 300.377378 450.453404 
L 302.228425 450.532659 
L 304.079471 450.538878 
L 305.930518 450.538909 
L 307.781564 450.538909 
L 309.632611 450.538909 
L 311.483658 450.538909 
L 313.334704 450.538909 
L 315.185751 450.538909 
L 317.036797 450.538909 
L 318.887844 450.538909 
L 320.73889 450.538909 
L 322.589937 450.538909 
L 324.440983 450.538909 
L 326.29203 450.538909 
L 328.143076 450.538909 
L 329.994123 450.538909 
L 331.845169 450.538909 
L 333.696216 450.538706 
L 335.547262 450.520674 
L 337.398309 450.427946 
L 339.249355 450.493102 
L 341.100402 450.537626 
" style="fill:none;stroke:#4878cf;stroke-linecap:round;stroke-width:1.5;"/>
   </g>
   <g id="patch_106">
    <path d="M 46.055092 450.538909 
L 734.747467 450.538909 
" style="fill:none;stroke:#262626;stroke-linecap:square;stroke-linejoin:miter;stroke-width:1.25;"/>
   </g>
   <g id="legend_2">
    <g id="patch_107">
     <path d="M 554.995904 275.66181 
L 584.995904 275.66181 
L 584.995904 265.16181 
L 554.995904 265.16181 
z
" style="fill:#4878cf;opacity:0.4;stroke:#1a1a1a;stroke-linejoin:miter;stroke-width:0.3;"/>
    </g>
    <g id="text_10">
     <!-- cpu bound request -->
     <defs>
      <path d="M 40.4375 19 
L 49.078125 17.875 
Q 47.65625 8.9375 41.8125 3.875 
Q 35.984375 -1.171875 27.484375 -1.171875 
Q 16.84375 -1.171875 10.375 5.78125 
Q 3.90625 12.75 3.90625 25.734375 
Q 3.90625 34.125 6.6875 40.421875 
Q 9.46875 46.734375 15.15625 49.875 
Q 20.84375 53.03125 27.546875 53.03125 
Q 35.984375 53.03125 41.359375 48.75 
Q 46.734375 44.484375 48.25 36.625 
L 39.703125 35.296875 
Q 38.484375 40.53125 35.375 43.15625 
Q 32.28125 45.796875 27.875 45.796875 
Q 21.234375 45.796875 17.078125 41.03125 
Q 12.9375 36.28125 12.9375 25.984375 
Q 12.9375 15.53125 16.9375 10.796875 
Q 20.953125 6.0625 27.390625 6.0625 
Q 32.5625 6.0625 36.03125 9.234375 
Q 39.5 12.40625 40.4375 19 
" id="ArialMT-63"/>
     </defs>
     <g style="fill:#262626;" transform="translate(596.995904297 275.661809659)scale(0.15 -0.15)">
      <use xlink:href="#ArialMT-63"/>
      <use x="50.0" xlink:href="#ArialMT-70"/>
      <use x="105.615234375" xlink:href="#ArialMT-75"/>
      <use x="161.23046875" xlink:href="#ArialMT-20"/>
      <use x="189.013671875" xlink:href="#ArialMT-62"/>
      <use x="244.62890625" xlink:href="#ArialMT-6f"/>
      <use x="300.244140625" xlink:href="#ArialMT-75"/>
      <use x="355.859375" xlink:href="#ArialMT-6e"/>
      <use x="411.474609375" xlink:href="#ArialMT-64"/>
      <use x="467.08984375" xlink:href="#ArialMT-20"/>
      <use x="494.873046875" xlink:href="#ArialMT-72"/>
      <use x="528.173828125" xlink:href="#ArialMT-65"/>
      <use x="583.7890625" xlink:href="#ArialMT-71"/>
      <use x="639.404296875" xlink:href="#ArialMT-75"/>
      <use x="695.01953125" xlink:href="#ArialMT-65"/>
      <use x="750.634765625" xlink:href="#ArialMT-73"/>
      <use x="800.634765625" xlink:href="#ArialMT-74"/>
     </g>
    </g>
   </g>
  </g>
 </g>
 <defs>
  <clipPath id="p68ba1393bb">
   <rect height="199.113818182" width="688.692375" x="46.0550917969" y="26.1556363636"/>
  </clipPath>
  <clipPath id="pf2a3da86dd">
   <rect height="199.113818182" width="688.692375" x="46.0550917969" y="251.425090909"/>
  </clipPath>
 </defs>
</svg>
